<?xml version="1.0" standalone="no"?>
<!DOCTYPE svg PUBLIC "-//W3C//DTD SVG 20010904//EN"
 "http://www.w3.org/TR/2001/REC-SVG-20010904/DTD/svg10.dtd">
<svg version="1.0" xmlns="http://www.w3.org/2000/svg"
 width="645.000000pt" height="645.000000pt" viewBox="0 0 645.000000 645.000000"
 preserveAspectRatio="xMidYMid meet">
<metadata>
Created by potrace 1.11, written by Peter Selinger 2001-2013
</metadata>
<g transform="translate(0.000000,645.000000) scale(0.100000,-0.100000)"
fill="#000000" stroke="none">
<path d="M3338 6430 c-27 -11 -92 -24 -145 -29 -198 -20 -300 -33 -383 -48
-47 -8 -121 -21 -165 -28 -201 -32 -684 -195 -955 -322 -221 -104 -253 -122
-345 -192 -107 -82 -158 -132 -309 -305 -82 -94 -183 -207 -225 -252 -67 -70
-178 -221 -235 -317 -44 -74 -152 -301 -197 -413 -26 -67 -62 -153 -80 -190
-69 -150 -78 -172 -104 -254 -40 -129 -72 -272 -106 -478 -28 -172 -31 -201
-26 -357 5 -185 8 -200 101 -485 24 -74 69 -216 101 -315 31 -99 88 -255 126
-346 65 -158 69 -171 69 -246 0 -104 21 -178 81 -292 108 -203 264 -409 394
-523 147 -129 699 -507 865 -592 52 -27 122 -66 156 -87 160 -98 467 -217 654
-254 47 -9 159 -37 248 -62 179 -49 158 -47 417 -24 66 5 140 15 165 20 25 5
146 31 270 56 159 33 238 54 268 71 23 14 66 34 95 44 29 10 70 25 92 34 22 8
54 15 70 16 45 0 350 84 452 123 142 55 279 127 336 175 28 25 86 70 127 100
85 63 333 309 418 416 31 39 82 101 113 137 37 44 65 90 83 136 20 52 49 97
115 177 155 188 256 400 381 800 75 241 120 586 120 919 -1 233 -2 248 -64
557 -78 396 -138 577 -292 883 -42 83 -285 452 -346 524 -24 28 -80 95 -124
150 -107 129 -224 239 -410 385 -43 34 -104 84 -134 111 -106 96 -245 178
-455 267 -55 24 -161 71 -236 105 -75 35 -172 74 -216 88 -142 45 -603 138
-678 137 -22 -1 -61 -10 -87 -20z m637 -724 c72 -20 166 -46 210 -58 117 -31
233 -82 354 -155 402 -244 693 -517 821 -774 22 -44 78 -143 124 -222 115
-197 153 -275 193 -397 19 -58 40 -119 48 -137 8 -17 15 -37 15 -45 0 -7 9
-40 19 -73 11 -33 29 -100 40 -150 19 -85 25 -129 52 -405 18 -180 7 -501 -24
-702 -37 -239 -55 -303 -149 -533 -46 -115 -124 -266 -183 -356 -51 -79 -108
-141 -319 -350 -142 -139 -281 -270 -309 -290 -68 -47 -328 -193 -459 -257
-57 -27 -141 -62 -188 -76 -47 -15 -119 -38 -160 -51 -86 -28 -463 -105 -511
-105 -43 0 -94 33 -110 73 -26 61 -11 942 21 1247 6 52 14 343 19 645 11 631
18 859 31 1000 6 65 6 131 -1 190 -6 50 -13 205 -15 345 -4 200 -2 281 11 375
23 171 43 805 34 1050 -4 99 -2 115 19 157 23 47 54 74 101 89 52 17 183 2
316 -35z m-1115 -27 c24 -13 53 -39 63 -57 19 -32 19 -43 7 -320 -9 -210 -9
-316 -1 -397 45 -465 46 -475 31 -606 -8 -68 -14 -153 -14 -189 1 -36 4 -540
7 -1120 3 -619 10 -1105 16 -1175 12 -132 13 -486 3 -775 l-7 -185 -47 -98
c-37 -76 -54 -100 -75 -108 -46 -17 -172 -15 -254 4 -56 13 -84 15 -103 7 -28
-10 -48 -5 -86 23 -81 58 -101 67 -155 67 -68 0 -197 50 -245 95 -19 18 -71
54 -115 80 -181 108 -215 136 -499 417 -350 348 -406 426 -481 674 -15 49 -55
175 -90 281 -60 180 -112 376 -151 573 -12 64 -18 159 -22 379 l-4 295 36 130
c20 72 59 223 86 335 43 174 58 218 98 290 25 47 67 129 93 181 52 106 140
244 215 335 27 33 61 76 76 95 40 54 75 90 178 184 105 97 179 152 290 216 41
23 98 57 125 75 80 52 461 233 528 251 34 9 98 25 142 36 44 10 96 23 115 28
19 5 71 8 115 6 64 -2 90 -7 125 -27z"/>
</g>
</svg>
